<svg fill="none" height="16" viewBox="0 0 16 16" width="16" xmlns="http://www.w3.org/2000/svg"><path d="m3 4.5c0-1.38071 1.11929-2.5 2.5-2.5h5c1.3807 0 2.5 1.11929 2.5 2.5v1.55001c1.1411.23163 2 1.24051 2 2.44999v5c0 .2761-.2239.5-.5.5s-.5-.2239-.5-.5v-2.5h-12v2.5c0 .2761-.22386.5-.5.5s-.5-.2239-.5-.5v-5c0-1.20948.85888-2.21836 2-2.44999zm-1 5.5h12v-1.5c0-.82843-.6716-1.5-1.5-1.5h-9c-.82843 0-1.5.67157-1.5 1.5zm10-5.5c0-.82843-.6716-1.5-1.5-1.5h-5c-.82843 0-1.5.67157-1.5 1.5v1.5h1v-.5c0-.27614.22386-.5.5-.5h1.5c.27614 0 .5.22386.5.5v.5h1v-.5c0-.27614.22386-.5.5-.5h1.5c.2761 0 .5.22386.5.5v.5h1z" fill="#212121"/></svg>